# xmcd CD database file
#
# Track frame offsets:
#	150
#	18821
#	35772
#	52236
#	68547
#	83546
#	102483
#	120202
#	137643
#	157802
#	174231
#	197259
#	209854
#
# Disc length: 3038 seconds
#
# Revision: 0
# Processed by: cddbd v1.5.2PL0 Copyright (c) Steve Scherf et al.
# Submitted via: CDex 1.51
#
DISCID=a20bdc0d
DTITLE=Michael Brennan - Anywhere But Here
DYEAR=2008
DGENRE=Country
TTITLE0=Mystery Train
TTITLE1=Grow Old With Me
TTITLE2=Troubled Mind
TTITLE3=Not Myself
TTITLE4=Stubborn
TTITLE5=Everything Has Changed
TTITLE6=Anywhere But Here
TTITLE7=Gone
TTITLE8=Wish I Was Home
TTITLE9=Get Outta This Town
TTITLE10=Ghosts In Your Eyes
TTITLE11=Hung Out To Dry
TTITLE12=No Place To Fall
EXTD=YEAR: 2008
EXTT0=
EXTT1=
EXTT2=
EXTT3=
EXTT4=
EXTT5=
EXTT6=
EXTT7=
EXTT8=
EXTT9=
EXTT10=
EXTT11=
EXTT12=
PLAYORDER=
